<?xml version="1.0" encoding="iso-8859-1"?>
<!-- Uploaded to: SVG Repo, www.svgrepo.com, Generator: SVG Repo Mixer Tools -->
<svg fill="#000000" height="800px" width="800px" version="1.1" id="Layer_1" xmlns="http://www.w3.org/2000/svg" xmlns:xlink="http://www.w3.org/1999/xlink" 
	 viewBox="0 0 502 502" xml:space="preserve">
<g>
	<g>
		<g>
			<path d="M463,116.612V46c0-5.522-4.477-10-10-10h-72.455C341.526,12.444,296.801,0,251,0c-45.801,0-90.526,12.444-129.545,36H45
				c-5.523,0-10,4.478-10,10v77.1C12.098,161.704,0,205.86,0,251c0,67.045,26.108,130.076,73.516,177.483
				C120.924,475.892,183.956,502,251,502s130.076-26.108,177.484-73.517C475.892,381.076,502,318.045,502,251
				C502,203.181,488.519,156.785,463,116.612z M474,209.5c0,58.725-47.776,106.5-106.5,106.5c-53.604,0-98.078-39.81-105.427-91.417
				c-0.083-0.585-0.168-1.169-0.241-1.756C261.285,218.46,261,214.013,261,209.5c0-58.725,47.776-106.5,106.5-106.5
				S474,150.775,474,209.5z M288.629,308.407L251,346.036l-37.629-37.629c16.602-13.229,29.475-30.259,37.629-49.508
				C259.154,278.148,272.027,295.177,288.629,308.407z M408.988,56H443v33.381l0.019,0.059
				c-10.278-12.181-21.716-23.409-34.087-33.457L408.988,56z M129.522,54.501C165.95,31.93,207.957,20,251,20
				c43.043,0,85.05,11.93,121.478,34.501c18,11.152,34.514,24.888,48.881,40.555C405.008,87.33,386.752,83,367.5,83
				c-52.276,0-97.247,31.875-116.5,77.209C231.747,114.875,186.776,83,134.5,83c-19.244,0-37.494,4.327-53.84,12.047
				C95.006,79.401,111.472,65.685,129.522,54.501z M55,94.225V56h37.998l0.059-0.019C79.048,67.353,66.26,80.22,54.98,94.29
				L55,94.225z M134.5,103c58.724,0,106.5,47.775,106.5,106.5c0,4.513-0.285,8.96-0.832,13.327
				c-0.073,0.587-0.158,1.171-0.241,1.756C232.578,276.19,188.104,316,134.5,316C75.776,316,28,268.225,28,209.5
				C28,150.775,75.776,103,134.5,103z M251,482c-122.996,0-223.837-96.628-230.624-217.957C40.781,306.567,84.267,336,134.5,336
				c22.489,0,43.622-5.906,61.941-16.238l47.488,47.488c1.953,1.952,4.512,2.929,7.071,2.929c2.559,0,5.119-0.977,7.071-2.929
				l47.488-47.488C323.878,330.094,345.011,336,367.5,336c50.233,0,93.719-29.433,114.124-71.957
				C474.837,385.372,373.996,482,251,482z"/>
			<path d="M365.14,409.123C331.779,433.248,292.31,446,251,446c-12.153,0-24.318-1.125-36.158-3.344
				c-5.429-1.015-10.654,2.559-11.671,7.987c-1.017,5.428,2.559,10.653,7.987,11.671C224.209,464.76,237.614,466,251,466
				c45.545,0,89.067-14.063,125.86-40.67c4.475-3.236,5.479-9.488,2.243-13.963C375.868,406.89,369.615,405.888,365.14,409.123z"/>
			<path d="M157.792,422.326c-14.07-7.673-27.195-17.091-39.009-27.994c-4.059-3.746-10.385-3.492-14.131,0.566
				c-3.746,4.058-3.492,10.386,0.566,14.131c13.021,12.017,27.488,22.398,43,30.855c1.52,0.829,3.161,1.223,4.778,1.223
				c3.542,0,6.974-1.886,8.789-5.215C164.428,431.044,162.641,424.97,157.792,422.326z"/>
			<path d="M134.5,248.625c21.574,0,39.125-17.552,39.125-39.125s-17.551-39.125-39.125-39.125
				c-21.574,0-39.125,17.552-39.125,39.125S112.926,248.625,134.5,248.625z M134.5,190.375c10.545,0,19.125,8.579,19.125,19.125
				s-8.58,19.125-19.125,19.125s-19.125-8.579-19.125-19.125S123.955,190.375,134.5,190.375z"/>
			<path d="M367.5,170.375c-21.574,0-39.125,17.552-39.125,39.125s17.551,39.125,39.125,39.125
				c21.574,0,39.125-17.552,39.125-39.125S389.074,170.375,367.5,170.375z M367.5,228.625c-10.545,0-19.125-8.579-19.125-19.125
				s8.58-19.125,19.125-19.125c10.545,0,19.125,8.579,19.125,19.125S378.045,228.625,367.5,228.625z"/>
			<path d="M367.5,117c-5.523,0-10,4.478-10,10c0,5.522,4.477,10,10,10c39.977,0,72.5,32.523,72.5,72.5c0,5.522,4.477,10,10,10
				s10-4.478,10-10C460,158.495,418.505,117,367.5,117z"/>
		</g>
	</g>
</g>
</svg>